<?xml version="1.0" encoding="UTF-8" standalone="no"?>
<!-- Created with Inkscape (http://www.inkscape.org/) -->

<svg
   xmlns:dc="http://purl.org/dc/elements/1.1/"
   xmlns:cc="http://creativecommons.org/ns#"
   xmlns:rdf="http://www.w3.org/1999/02/22-rdf-syntax-ns#"
   xmlns:svg="http://www.w3.org/2000/svg"
   xmlns="http://www.w3.org/2000/svg"
   xmlns:sodipodi="http://sodipodi.sourceforge.net/DTD/sodipodi-0.dtd"
   xmlns:inkscape="http://www.inkscape.org/namespaces/inkscape"
   width="210mm"
   height="297mm"
   viewBox="0 0 210 297"
   version="1.1"
   id="svg8"
   sodipodi:docname="annotatestars.svg"
   inkscape:version="0.92.4 (5da689c313, 2019-01-14)">
  <defs
     id="defs2" />
  <sodipodi:namedview
     id="base"
     pagecolor="#ffffff"
     bordercolor="#666666"
     borderopacity="1.0"
     inkscape:pageopacity="0.0"
     inkscape:pageshadow="2"
     inkscape:zoom="0.98994949"
     inkscape:cx="502.25376"
     inkscape:cy="720.96555"
     inkscape:document-units="mm"
     inkscape:current-layer="layer1"
     showgrid="false"
     inkscape:window-width="2560"
     inkscape:window-height="1377"
     inkscape:window-x="-8"
     inkscape:window-y="-8"
     inkscape:window-maximized="1" />
  <metadata
     id="metadata5">
    <rdf:RDF>
      <cc:Work
         rdf:about="">
        <dc:format>image/svg+xml</dc:format>
        <dc:type
           rdf:resource="http://purl.org/dc/dcmitype/StillImage" />
        <dc:title />
      </cc:Work>
    </rdf:RDF>
  </metadata>
  <g
     inkscape:label="Layer 1"
     inkscape:groupmode="layer"
     id="layer1">
    <g
       id="g1015"
       transform="matrix(0.39804474,0,0,0.385285,99.39615,25.382174)">
      <path
         id="path960"
         d="m -193.16863,354.11843 c -1.02648,-0.33257 -1.95016,-0.98251 -2.60896,-1.89184 -1.16744,-1.60563 -1.3222,-3.73246 -0.3974,-5.48763 l 44.27605,-84.38303 -44.4178,-84.30266 c -0.92145,-1.75606 -0.7696,-3.88219 0.39059,-5.48437 1.16674,-1.60553 3.14302,-2.4118 5.10087,-2.07885 l 93.929965,16.02692 66.45968,-68.29174 c 1.38256,-1.42603 3.45529,-1.93804 5.33966,-1.32752 v 0 c 1.88933,0.61212 3.26798,2.24234 3.54666,4.20659 l 13.7799701,94.28851 85.4872909,42.10232 c 1.781134,0.87844 2.905763,2.68389 2.91266,4.67515 1.98e-4,1.97813 -1.120195,3.79594 -2.899775,4.67142 l -85.4188259,42.24797 -13.6235901,94.30862 c -0.28512,1.9624 -1.65769,3.59439 -3.53996,4.21197 -1.89042,0.62586 -3.9652,0.11256 -5.34876,-1.31651 l -66.56874,-68.17541 -93.910545,16.18186 c -0.8461,0.1423 -1.70058,0.0737 -2.48904,-0.18177 z m 10.99875,-171.58036 40.76752,77.38855 c 0.79742,1.51314 0.79959,3.33301 10e-4,4.84971 l -40.63869,77.45198 86.203725,-14.85415 c 1.69046,-0.29614 3.41119,0.26135 4.61672,1.49577 l 61.10477,62.5805 12.50697,-86.56635 c 0.24284,-1.69665 1.3102,-3.16452 2.84505,-3.92751 l 78.40429,-38.77818 -78.46543,-38.64377 c -1.54109,-0.75682 -2.60517,-2.22485 -2.85522,-3.92229 l -12.65634,-86.54371 -61.00447,62.68389 c -1.19795,1.2283 -2.92076,1.79341 -4.61285,1.50272 z"
         inkscape:connector-curvature="0"
         style="stroke-width:5.21265125" />
      <g
         id="g962" />
      <g
         id="g964" />
      <g
         id="g966" />
      <g
         id="g968" />
      <g
         id="g970" />
      <g
         id="g972" />
      <g
         id="g974" />
      <g
         id="g976" />
      <g
         id="g978" />
      <g
         id="g980" />
      <g
         id="g982" />
      <g
         id="g984" />
      <g
         id="g986" />
      <g
         id="g988" />
      <g
         id="g990" />
    </g>
    <path
       id="path1029"
       d="M 133.35748,95.332373 109.47447,71.691337 167.23969,14.511405 191.1227,38.152436 Z M 107.24204,75.855699 129.15049,97.542189 96.3036,108.36979 Z m 91.22647,-44.943353 -4.14252,4.100548 -23.91462,-23.672313 4.14252,-4.1005475 c 4.17286,-4.1330814 10.9397,-4.1330814 15.11255,0 l 8.80207,8.7128825 c 4.14251,4.144344 4.14251,10.816337 0,14.95943 z m 0,0"
       inkscape:connector-curvature="0"
       style="stroke-width:0.32197106" />
  </g>
</svg>
