<?xml version="1.0" encoding="UTF-8" standalone="no"?>
<!-- Created with Inkscape (http://www.inkscape.org/) -->

<svg
   xmlns:dc="http://purl.org/dc/elements/1.1/"
   xmlns:cc="http://creativecommons.org/ns#"
   xmlns:rdf="http://www.w3.org/1999/02/22-rdf-syntax-ns#"
   xmlns:svg="http://www.w3.org/2000/svg"
   xmlns="http://www.w3.org/2000/svg"
   xmlns:sodipodi="http://sodipodi.sourceforge.net/DTD/sodipodi-0.dtd"
   xmlns:inkscape="http://www.inkscape.org/namespaces/inkscape"
   width="210mm"
   height="297mm"
   viewBox="0 0 210 297"
   version="1.1"
   id="svg8"
   inkscape:version="0.92.4 (5da689c313, 2019-01-14)"
   sodipodi:docname="detectstars.svg">
  <defs
     id="defs2" />
  <sodipodi:namedview
     id="base"
     pagecolor="#ffffff"
     bordercolor="#666666"
     borderopacity="1.0"
     inkscape:pageopacity="0.0"
     inkscape:pageshadow="2"
     inkscape:zoom="0.98994949"
     inkscape:cx="93.041388"
     inkscape:cy="824.65395"
     inkscape:document-units="mm"
     inkscape:current-layer="g1015"
     showgrid="false"
     inkscape:window-width="2560"
     inkscape:window-height="1377"
     inkscape:window-x="-8"
     inkscape:window-y="-8"
     inkscape:window-maximized="1" />
  <metadata
     id="metadata5">
    <rdf:RDF>
      <cc:Work
         rdf:about="">
        <dc:format>image/svg+xml</dc:format>
        <dc:type
           rdf:resource="http://purl.org/dc/dcmitype/StillImage" />
        <dc:title></dc:title>
      </cc:Work>
    </rdf:RDF>
  </metadata>
  <g
     inkscape:label="Layer 1"
     inkscape:groupmode="layer"
     id="layer1">
    <g
       id="g903"
       transform="matrix(0.26458333,0,0,0.26458333,21.799749,11.455942)">
      <g
         id="g1606">
	<g
   id="g1604">
		<path
   id="path1602"
   d="m 505.749,475.587 -145.6,-145.6 C 388.352,295.15 405.333,250.883 405.333,202.67 405.333,90.926 314.41,0.003 202.666,0.003 90.922,0.003 0,90.925 0,202.669 c 0,111.744 90.923,202.667 202.667,202.667 48.213,0 92.48,-16.981 127.317,-45.184 l 145.6,145.6 c 4.16,4.16 9.621,6.251 15.083,6.251 5.462,0 10.923,-2.091 15.083,-6.251 8.341,-8.341 8.341,-21.824 -10e-4,-30.165 z M 202.667,362.669 c -88.235,0 -160,-71.765 -160,-160 0,-88.235 71.765,-160 160,-160 88.235,0 160,71.765 160,160 0,88.235 -71.766,160 -160,160 z"
   inkscape:connector-curvature="0" />

	</g>

</g>
      <g
         id="g1608">
</g>
      <g
         id="g1610">
</g>
      <g
         id="g1612">
</g>
      <g
         id="g1614">
</g>
      <g
         id="g1616">
</g>
      <g
         id="g1618">
</g>
      <g
         id="g1620">
</g>
      <g
         id="g1622">
</g>
      <g
         id="g1624">
</g>
      <g
         id="g1626">
</g>
      <g
         id="g1628">
</g>
      <g
         id="g1630">
</g>
      <g
         id="g1632">
</g>
      <g
         id="g1634">
</g>
      <g
         id="g1636">
</g>
      <g
         transform="matrix(5.5569707,0,0,5.5569707,61.953009,65.728042)"
         id="g967">
        <g
           id="g965">
          <g
             id="g963" />
        </g>
      </g>
      <g
         transform="translate(61.953009,391.71944)"
         id="g969" />
      <g
         transform="translate(61.953009,391.71944)"
         id="g971" />
      <g
         transform="translate(61.953009,391.71944)"
         id="g973" />
      <g
         transform="translate(61.953009,391.71944)"
         id="g975" />
      <g
         transform="translate(61.953009,391.71944)"
         id="g977" />
      <g
         transform="translate(61.953009,391.71944)"
         id="g979" />
      <g
         transform="translate(61.953009,391.71944)"
         id="g981" />
      <g
         transform="translate(61.953009,391.71944)"
         id="g983" />
      <g
         transform="translate(61.953009,391.71944)"
         id="g985" />
      <g
         transform="translate(61.953009,391.71944)"
         id="g987" />
      <g
         transform="translate(61.953009,391.71944)"
         id="g989" />
      <g
         transform="translate(61.953009,391.71944)"
         id="g991" />
      <g
         transform="translate(61.953009,391.71944)"
         id="g993" />
      <g
         transform="translate(61.953009,391.71944)"
         id="g995" />
      <g
         transform="translate(61.953009,391.71944)"
         id="g997" />
    </g>
    <g
       id="g1015"
       transform="matrix(0.26458333,0,0,0.26458333,138.80554,50.269343)">
      <path
         id="path960"
         d="m -361.02578,149.83271 c -1.02648,-0.33257 -1.95016,-0.98251 -2.60896,-1.89184 -1.16744,-1.60563 -1.3222,-3.73246 -0.3974,-5.48763 l 44.27605,-84.383023 -44.4178,-84.302665 c -0.92145,-1.756063 -0.7696,-3.882191 0.39059,-5.484369 1.16674,-1.605534 3.14302,-2.411805 5.10087,-2.07885 l 93.92997,16.02692 66.45968,-68.291742 c 1.38256,-1.426026 3.45529,-1.938034 5.33966,-1.327516 v 0 c 1.88933,0.61212 3.26798,2.24234 3.54666,4.206588 l 13.77997,94.288513 85.487291,42.102321 c 1.781134,0.878436 2.905763,2.683888 2.91266,4.675147 1.98e-4,1.978131 -1.120195,3.795942 -2.899775,4.67142 l -85.418826,42.247966 -13.62359,94.30862 c -0.28512,1.9624 -1.65769,3.59439 -3.53996,4.21197 -1.89042,0.62586 -3.9652,0.11256 -5.34876,-1.31651 l -66.56874,-68.17541 -93.91055,16.18186 c -0.8461,0.1423 -1.70058,0.0737 -2.48904,-0.18177 z m 10.99875,-171.58036 40.76752,77.388552 c 0.79742,1.513143 0.79959,3.333007 10e-4,4.849713 l -40.63869,77.451975 86.20373,-14.85415 c 1.69046,-0.29614 3.41119,0.26135 4.61672,1.49577 l 61.10477,62.5805 12.50697,-86.56635 c 0.24284,-1.696649 1.3102,-3.164521 2.84505,-3.92751 l 78.40429,-38.778182 -78.46543,-38.643761 c -1.54109,-0.756828 -2.60517,-2.224858 -2.85522,-3.922296 l -12.65634,-86.543705 -61.00447,62.6838822 c -1.19795,1.228302 -2.92076,1.793411 -4.61285,1.502723 z"
         inkscape:connector-curvature="0"
         style="stroke-width:5.21265125" />
      <g
         id="g962">
</g>
      <g
         id="g964">
</g>
      <g
         id="g966">
</g>
      <g
         id="g968">
</g>
      <g
         id="g970">
</g>
      <g
         id="g972">
</g>
      <g
         id="g974">
</g>
      <g
         id="g976">
</g>
      <g
         id="g978">
</g>
      <g
         id="g980">
</g>
      <g
         id="g982">
</g>
      <g
         id="g984">
</g>
      <g
         id="g986">
</g>
      <g
         id="g988">
</g>
      <g
         id="g990">
</g>
    </g>
  </g>
</svg>
